<svg version="1.1" id="Layer_1" xmlns="http://www.w3.org/2000/svg" xmlns:xlink="http://www.w3.org/1999/xlink" x="0px" y="0px"
	 width="100%" viewBox="0 0 400 400" enable-background="new 0 0 400 400" xml:space="preserve">
<path fill="#000000" opacity="1.000000" stroke="none" 
	d="
M271.000000,401.000000 
	C180.694733,401.000000 90.889473,401.000000 1.042102,401.000000 
	C1.042102,267.736420 1.042102,134.472794 1.042102,1.104592 
	C134.221878,1.104592 267.443848,1.104592 400.832916,1.104592 
	C400.832916,134.333160 400.832916,267.666565 400.832916,401.000000 
	C357.806183,401.000000 314.653107,401.000000 271.000000,401.000000 
M256.376099,370.050568 
	C264.386108,374.305237 272.427948,378.501343 280.396729,382.831909 
	C287.625061,386.760071 294.814362,390.304657 303.043884,392.265442 
	C320.542450,396.434784 334.981781,382.048004 331.867584,362.831635 
	C329.455200,347.945862 326.614624,333.129822 324.014923,318.273956 
	C321.330688,302.934814 318.941071,287.539459 315.964966,272.257812 
	C314.326965,263.847137 315.831818,256.977631 322.331238,251.088058 
	C332.739868,241.656143 342.981537,232.035278 353.139740,222.333008 
	C364.783356,211.211975 376.131134,199.779144 387.857971,188.748077 
	C394.357513,182.634125 397.376312,175.852280 397.252441,166.604919 
	C397.076141,153.445358 389.266998,146.305588 378.819275,144.211960 
	C360.040955,140.448959 341.019470,137.864288 322.060760,135.048782 
	C309.168152,133.134125 296.180084,131.859924 283.290924,129.924759 
	C275.378479,128.736771 269.106689,124.855423 265.584747,117.167366 
	C260.605286,106.297630 255.574646,95.444679 250.256363,84.738289 
	C241.541183,67.193405 232.649216,49.734879 223.650101,32.333908 
	C222.071533,29.281567 220.034286,26.191330 217.470245,23.971905 
	C206.980988,14.892493 187.976044,17.441153 180.148575,33.444393 
	C170.862885,52.428993 161.388962,71.321716 151.957184,90.234581 
	C147.760880,98.649124 143.069534,106.843002 139.340530,115.456383 
	C136.151840,122.821732 131.155334,127.812820 123.570358,129.636749 
	C116.795479,131.265854 109.800659,132.029800 102.875160,132.971527 
	C92.209251,134.421875 81.504158,135.587036 70.843994,137.075851 
	C57.474792,138.942978 44.065437,140.652573 30.813334,143.167480 
	C25.098673,144.252014 19.248941,146.399628 14.316246,149.448624 
	C4.959389,155.232285 3.811472,176.053650 12.771654,185.214844 
	C14.823528,187.312729 17.349119,188.941818 19.452091,190.996109 
	C36.810104,207.952377 54.119953,224.957916 71.444084,241.948868 
	C71.800751,242.298691 72.144875,242.661774 72.509804,243.002670 
	C77.337685,247.512177 82.463379,251.754028 86.857674,256.652161 
	C88.700729,258.706573 90.089874,262.272583 89.790039,264.938202 
	C88.886246,272.973358 87.079849,280.909088 85.573578,288.873810 
	C83.406296,300.333771 81.103317,311.768799 79.023674,323.244446 
	C76.651703,336.333099 74.193375,349.415649 72.277275,362.574341 
	C70.755798,373.023041 73.179398,384.157104 83.801048,390.120850 
	C92.375435,394.935089 101.338791,393.890289 109.923149,389.550110 
	C124.875694,381.990112 139.844910,374.458557 154.685471,366.682922 
	C168.730225,359.324280 182.566711,351.567719 196.625610,344.237061 
	C199.043991,342.976105 202.825470,341.592865 204.775040,342.597992 
	C221.877975,351.415619 238.708038,360.762482 256.376099,370.050568 
z"/>
<path fill="#FCF500" opacity="1.000000" stroke="none" 
	d="
M255.997528,370.001526 
	C238.708038,360.762482 221.877975,351.415619 204.775040,342.597992 
	C202.825470,341.592865 199.043991,342.976105 196.625610,344.237061 
	C182.566711,351.567719 168.730225,359.324280 154.685471,366.682922 
	C139.844910,374.458557 124.875694,381.990112 109.923149,389.550110 
	C101.338791,393.890289 92.375435,394.935089 83.801048,390.120850 
	C73.179398,384.157104 70.755798,373.023041 72.277275,362.574341 
	C74.193375,349.415649 76.651703,336.333099 79.023674,323.244446 
	C81.103317,311.768799 83.406296,300.333771 85.573578,288.873810 
	C87.079849,280.909088 88.886246,272.973358 89.790039,264.938202 
	C90.089874,262.272583 88.700729,258.706573 86.857674,256.652161 
	C82.463379,251.754028 77.337685,247.512177 72.509804,243.002670 
	C72.144875,242.661774 71.800751,242.298691 71.444084,241.948868 
	C54.119953,224.957916 36.810104,207.952377 19.452091,190.996109 
	C17.349119,188.941818 14.823528,187.312729 12.771654,185.214844 
	C3.811472,176.053650 4.959389,155.232285 14.316246,149.448624 
	C19.248941,146.399628 25.098673,144.252014 30.813334,143.167480 
	C44.065437,140.652573 57.474792,138.942978 70.843994,137.075851 
	C81.504158,135.587036 92.209251,134.421875 102.875160,132.971527 
	C109.800659,132.029800 116.795479,131.265854 123.570358,129.636749 
	C131.155334,127.812820 136.151840,122.821732 139.340530,115.456383 
	C143.069534,106.843002 147.760880,98.649124 151.957184,90.234581 
	C161.388962,71.321716 170.862885,52.428993 180.148575,33.444393 
	C187.976044,17.441153 206.980988,14.892493 217.470245,23.971905 
	C220.034286,26.191330 222.071533,29.281567 223.650101,32.333908 
	C232.649216,49.734879 241.541183,67.193405 250.256363,84.738289 
	C255.574646,95.444679 260.605286,106.297630 265.584747,117.167366 
	C269.106689,124.855423 275.378479,128.736771 283.290924,129.924759 
	C296.180084,131.859924 309.168152,133.134125 322.060760,135.048782 
	C341.019470,137.864288 360.040955,140.448959 378.819275,144.211960 
	C389.266998,146.305588 397.076141,153.445358 397.252441,166.604919 
	C397.376312,175.852280 394.357513,182.634125 387.857971,188.748077 
	C376.131134,199.779144 364.783356,211.211975 353.139740,222.333008 
	C342.981537,232.035278 332.739868,241.656143 322.331238,251.088058 
	C315.831818,256.977631 314.326965,263.847137 315.964966,272.257812 
	C318.941071,287.539459 321.330688,302.934814 324.014923,318.273956 
	C326.614624,333.129822 329.455200,347.945862 331.867584,362.831635 
	C334.981781,382.048004 320.542450,396.434784 303.043884,392.265442 
	C294.814362,390.304657 287.625061,386.760071 280.396729,382.831909 
	C272.427948,378.501343 264.386108,374.305237 255.997528,370.001526 
M154.779221,240.499878 
	C154.832428,246.990768 154.678848,253.491226 154.978882,259.970673 
	C155.775681,277.178589 165.665833,288.023346 182.678284,290.641022 
	C204.465210,293.993347 221.962753,282.363373 222.761200,262.284637 
	C223.732391,237.861465 223.457825,213.356903 222.796158,188.912598 
	C222.401245,174.323044 213.984772,164.192825 201.543625,160.662048 
	C193.029343,158.245728 184.464890,158.348312 175.952774,160.840240 
	C167.977081,163.175110 161.849609,168.018936 158.963943,175.744858 
	C156.850327,181.403717 155.266739,187.567795 155.044830,193.565811 
	C154.479050,208.859512 154.808167,224.186310 154.779221,240.499878 
M236.770828,170.346802 
	C234.498779,176.509567 230.471786,182.614136 230.265228,188.845367 
	C229.465744,212.963364 229.322647,237.138412 230.040344,261.259338 
	C230.539780,278.044861 240.659561,287.986115 257.278839,290.614838 
	C279.841217,294.183624 297.147461,281.792084 297.798492,260.406311 
	C298.502686,237.273636 298.428162,214.089035 297.764465,190.953735 
	C297.380707,177.576721 292.064758,166.106873 278.227295,161.241257 
	C265.456055,156.750549 246.007782,158.116348 236.770828,170.346802 
M147.363815,217.500214 
	C147.363815,198.420212 147.363815,179.340195 147.363815,159.950241 
	C140.758850,159.950241 134.784546,159.892242 128.813629,160.008408 
	C127.840218,160.027344 126.393822,160.549942 125.990845,161.289291 
	C121.234978,170.014771 113.231430,173.980042 104.205002,176.284866 
	C104.205002,183.266083 104.205002,190.017151 104.205002,197.973312 
	C109.891487,195.584534 114.896477,193.482040 120.121613,191.287079 
	C120.121613,224.062225 120.121613,256.829193 120.121613,289.713654 
	C129.315674,289.713654 138.217896,289.713654 147.363831,289.713654 
	C147.363831,265.786163 147.363831,242.143204 147.363815,217.500214 
M188.648468,116.902481 
	C191.769012,114.995239 194.923737,113.141228 198.000198,111.165329 
	C200.884186,109.313034 201.793060,100.786110 199.099670,98.898170 
	C195.355499,96.273689 191.289749,94.108032 187.302948,91.710663 
	C184.311905,99.126839 188.862503,102.125549 194.913834,104.667892 
	C192.155197,106.205040 190.220322,107.143921 188.434967,108.311440 
	C185.910675,109.962189 185.755325,114.516220 188.648468,116.902481 
M212.357712,111.025795 
	C217.608551,111.024582 214.556671,107.701042 214.984344,105.472214 
	C210.776428,105.472214 207.023438,105.472214 203.122223,105.472214 
	C203.122223,107.420532 203.122223,109.110558 203.122223,111.026505 
	C206.100693,111.026505 208.746826,111.026505 212.357712,111.025795 
M202.948105,96.673935 
	C202.948105,98.213425 202.948105,99.752907 202.948105,101.130348 
	C207.399994,101.130348 211.121231,101.130348 215.172089,101.130348 
	C215.090652,99.274368 215.023743,97.749748 214.950302,96.076019 
	C210.918259,96.076019 207.314133,96.076019 202.948105,96.673935 
z"/>
<path fill="#030300" opacity="1.000000" stroke="none" 
	d="
M154.779221,239.999878 
	C154.808167,224.186310 154.479050,208.859512 155.044830,193.565811 
	C155.266739,187.567795 156.850327,181.403717 158.963943,175.744858 
	C161.849609,168.018936 167.977081,163.175110 175.952774,160.840240 
	C184.464890,158.348312 193.029343,158.245728 201.543625,160.662048 
	C213.984772,164.192825 222.401245,174.323044 222.796158,188.912598 
	C223.457825,213.356903 223.732391,237.861465 222.761200,262.284637 
	C221.962753,282.363373 204.465210,293.993347 182.678284,290.641022 
	C165.665833,288.023346 155.775681,277.178589 154.978882,259.970673 
	C154.678848,253.491226 154.832428,246.990768 154.779221,239.999878 
M195.429230,218.500244 
	C195.429230,217.003296 195.451355,215.505981 195.425522,214.009476 
	C195.279175,205.533173 195.244751,197.052109 194.906143,188.583313 
	C194.772324,185.236649 192.937057,183.053741 189.184128,182.986664 
	C185.458435,182.920105 183.679031,184.988068 183.177444,188.327682 
	C182.833252,190.619370 182.753357,192.967636 182.749786,195.290909 
	C182.718597,215.582794 182.716263,235.874771 182.739136,256.166687 
	C182.747086,263.229218 184.885696,266.882538 188.935974,266.985107 
	C193.158936,267.092041 195.396179,263.350037 195.417618,255.925934 
	C195.452682,243.784149 195.428452,231.642166 195.429230,218.500244 
z"/>
<path fill="#030300" opacity="1.000000" stroke="none" 
	d="
M236.973877,170.048096 
	C246.007782,158.116348 265.456055,156.750549 278.227295,161.241257 
	C292.064758,166.106873 297.380707,177.576721 297.764465,190.953735 
	C298.428162,214.089035 298.502686,237.273636 297.798492,260.406311 
	C297.147461,281.792084 279.841217,294.183624 257.278839,290.614838 
	C240.659561,287.986115 230.539780,278.044861 230.040344,261.259338 
	C229.322647,237.138412 229.465744,212.963364 230.265228,188.845367 
	C230.471786,182.614136 234.498779,176.509567 236.973877,170.048096 
M270.150909,204.502106 
	C269.887695,198.702515 270.043365,192.833389 269.099365,187.146805 
	C268.825348,185.495926 265.424377,183.349152 263.418213,183.307953 
	C261.676697,183.272171 259.150360,185.556366 258.295166,187.422226 
	C257.246796,189.709686 257.353851,192.627945 257.345398,195.274704 
	C257.280518,215.583511 257.285950,235.892639 257.321289,256.201569 
	C257.333191,263.038361 259.683868,266.900238 263.689789,267.000214 
	C267.824524,267.103424 270.130951,263.399017 270.141235,256.440247 
	C270.166351,239.460617 270.150360,222.480927 270.150909,204.502106 
z"/>
<path fill="#000000" opacity="1.000000" stroke="none" 
	d="
M147.363831,218.000229 
	C147.363831,242.143204 147.363831,265.786163 147.363831,289.713654 
	C138.217896,289.713654 129.315674,289.713654 120.121613,289.713654 
	C120.121613,256.829193 120.121613,224.062225 120.121613,191.287079 
	C114.896477,193.482040 109.891487,195.584534 104.205002,197.973312 
	C104.205002,190.017151 104.205002,183.266083 104.205002,176.284866 
	C113.231430,173.980042 121.234978,170.014771 125.990845,161.289291 
	C126.393822,160.549942 127.840218,160.027344 128.813629,160.008408 
	C134.784546,159.892242 140.758850,159.950241 147.363815,159.950241 
	C147.363815,179.340195 147.363815,198.420212 147.363831,218.000229 
z"/>
<path fill="#080800" opacity="1.000000" stroke="none" 
	d="
M188.332443,117.047470 
	C185.755325,114.516220 185.910675,109.962189 188.434967,108.311440 
	C190.220322,107.143921 192.155197,106.205040 194.913834,104.667892 
	C188.862503,102.125549 184.311905,99.126839 187.302948,91.710663 
	C191.289749,94.108032 195.355499,96.273689 199.099670,98.898170 
	C201.793060,100.786110 200.884186,109.313034 198.000198,111.165329 
	C194.923737,113.141228 191.769012,114.995239 188.332443,117.047470 
z"/>
<path fill="#0E0E00" opacity="1.000000" stroke="none" 
	d="
M211.875336,111.026154 
	C208.746826,111.026505 206.100693,111.026505 203.122223,111.026505 
	C203.122223,109.110558 203.122223,107.420532 203.122223,105.472214 
	C207.023438,105.472214 210.776428,105.472214 214.984344,105.472214 
	C214.556671,107.701042 217.608551,111.024582 211.875336,111.026154 
z"/>
<path fill="#000000" opacity="1.000000" stroke="none" 
	d="
M203.329056,96.374977 
	C207.314133,96.076019 210.918259,96.076019 214.950302,96.076019 
	C215.023743,97.749748 215.090652,99.274368 215.172089,101.130348 
	C211.121231,101.130348 207.399994,101.130348 202.948105,101.130348 
	C202.948105,99.752907 202.948105,98.213425 203.329056,96.374977 
z"/>
<path fill="#FCF500" opacity="1.000000" stroke="none" 
	d="
M195.429230,219.000259 
	C195.428452,231.642166 195.452682,243.784149 195.417618,255.925934 
	C195.396179,263.350037 193.158936,267.092041 188.935974,266.985107 
	C184.885696,266.882538 182.747086,263.229218 182.739136,256.166687 
	C182.716263,235.874771 182.718597,215.582794 182.749786,195.290909 
	C182.753357,192.967636 182.833252,190.619370 183.177444,188.327682 
	C183.679031,184.988068 185.458435,182.920105 189.184128,182.986664 
	C192.937057,183.053741 194.772324,185.236649 194.906143,188.583313 
	C195.244751,197.052109 195.279175,205.533173 195.425522,214.009476 
	C195.451355,215.505981 195.429230,217.003296 195.429230,219.000259 
z"/>
<path fill="#F5EF00" opacity="1.000000" stroke="none" 
	d="
M270.150909,205.001678 
	C270.150360,222.480927 270.166351,239.460617 270.141235,256.440247 
	C270.130951,263.399017 267.824524,267.103424 263.689789,267.000214 
	C259.683868,266.900238 257.333191,263.038361 257.321289,256.201569 
	C257.285950,235.892639 257.280518,215.583511 257.345398,195.274704 
	C257.353851,192.627945 257.246796,189.709686 258.295166,187.422226 
	C259.150360,185.556366 261.676697,183.272171 263.418213,183.307953 
	C265.424377,183.349152 268.825348,185.495926 269.099365,187.146805 
	C270.043365,192.833389 269.887695,198.702515 270.150909,205.001678 
z"/>
</svg>