<svg version="1.1" id="Layer_1" xmlns="http://www.w3.org/2000/svg" xmlns:xlink="http://www.w3.org/1999/xlink" x="0px" y="0px"
	 width="100%" viewBox="0 0 400 400" enable-background="new 0 0 400 400" xml:space="preserve">
<path fill="#000000" opacity="1.000000" stroke="none" 
	d="
M271.000000,401.000000 
	C180.694733,401.000000 90.889473,401.000000 1.042102,401.000000 
	C1.042102,267.736420 1.042102,134.472794 1.042102,1.104592 
	C134.221878,1.104592 267.443848,1.104592 400.832916,1.104592 
	C400.832916,134.333160 400.832916,267.666565 400.832916,401.000000 
	C357.806183,401.000000 314.653107,401.000000 271.000000,401.000000 
M270.632324,377.927429 
	C280.040649,382.422424 289.122833,387.873444 298.924042,391.216675 
	C320.414001,398.547058 334.782227,382.566772 331.827209,362.871857 
	C330.231323,352.235321 327.826752,341.722717 326.045258,331.110870 
	C322.584290,310.495117 319.633942,289.787018 315.771027,269.249023 
	C314.437775,262.160492 316.467834,256.967590 321.132111,252.467392 
	C331.739197,242.233398 342.662109,232.327423 353.316040,222.141083 
	C365.085602,210.888062 376.604828,199.372452 388.417725,188.165848 
	C394.521851,182.374969 397.443542,175.907959 397.225708,167.179489 
	C396.968719,156.883163 393.268982,149.042618 383.580658,146.163605 
	C372.413208,142.845032 360.752350,141.103836 349.236786,139.067764 
	C341.022034,137.615295 332.692200,136.815750 324.415924,135.708481 
	C312.738342,134.146164 301.071136,132.502640 289.383850,131.017319 
	C278.741028,129.664749 269.429901,126.779396 264.748901,115.516251 
	C260.303986,104.821144 255.137756,94.410652 249.963348,84.037300 
	C241.269043,66.607460 232.397018,49.264492 223.398666,31.989714 
	C221.795685,28.912334 219.695389,25.727480 217.009033,23.644001 
	C204.973236,14.309321 188.154877,18.375198 180.882050,32.595192 
	C167.051483,59.636997 153.185883,86.676842 140.199081,114.126381 
	C134.994537,125.126930 127.052994,129.807114 115.694023,131.067352 
	C103.171341,132.456711 90.698387,134.310013 78.218750,136.067566 
	C62.189419,138.325012 46.092358,140.248062 30.196583,143.232025 
	C24.194908,144.358673 17.774128,146.955063 13.125779,150.795532 
	C4.243342,158.134171 4.621544,177.230118 12.835099,185.258377 
	C14.947054,187.322678 17.405447,189.030640 19.538347,191.075775 
	C29.488123,200.616058 39.394562,210.201721 49.288189,219.800339 
	C61.692959,231.835220 74.251747,243.721863 86.298271,256.106110 
	C88.571198,258.442749 90.178604,263.036469 89.671425,266.200500 
	C86.859779,283.740784 83.242195,301.150452 80.013718,318.625732 
	C77.287025,333.384918 74.330383,348.117645 72.205582,362.966522 
	C70.736115,373.235687 73.267914,383.964478 83.494270,389.892609 
	C92.165276,394.919159 101.128616,393.944672 109.770020,389.609009 
	C121.710663,383.618011 133.567429,377.456940 145.399094,371.252380 
	C162.603333,362.230438 179.696793,352.994537 196.990952,344.149963 
	C199.401321,342.917297 203.320679,342.160919 205.466507,343.267914 
	C227.107346,354.431641 248.523956,366.030060 270.632324,377.927429 
z"/>
<path fill="#FC0000" opacity="1.000000" stroke="none" 
	d="
M270.317932,377.716888 
	C248.523956,366.030060 227.107346,354.431641 205.466507,343.267914 
	C203.320679,342.160919 199.401321,342.917297 196.990952,344.149963 
	C179.696793,352.994537 162.603333,362.230438 145.399094,371.252380 
	C133.567429,377.456940 121.710663,383.618011 109.770020,389.609009 
	C101.128616,393.944672 92.165276,394.919159 83.494270,389.892609 
	C73.267914,383.964478 70.736115,373.235687 72.205582,362.966522 
	C74.330383,348.117645 77.287025,333.384918 80.013718,318.625732 
	C83.242195,301.150452 86.859779,283.740784 89.671425,266.200500 
	C90.178604,263.036469 88.571198,258.442749 86.298271,256.106110 
	C74.251747,243.721863 61.692959,231.835220 49.288189,219.800339 
	C39.394562,210.201721 29.488123,200.616058 19.538347,191.075775 
	C17.405447,189.030640 14.947054,187.322678 12.835099,185.258377 
	C4.621544,177.230118 4.243342,158.134171 13.125779,150.795532 
	C17.774128,146.955063 24.194908,144.358673 30.196583,143.232025 
	C46.092358,140.248062 62.189419,138.325012 78.218750,136.067566 
	C90.698387,134.310013 103.171341,132.456711 115.694023,131.067352 
	C127.052994,129.807114 134.994537,125.126930 140.199081,114.126381 
	C153.185883,86.676842 167.051483,59.636997 180.882050,32.595192 
	C188.154877,18.375198 204.973236,14.309321 217.009033,23.644001 
	C219.695389,25.727480 221.795685,28.912334 223.398666,31.989714 
	C232.397018,49.264492 241.269043,66.607460 249.963348,84.037300 
	C255.137756,94.410652 260.303986,104.821144 264.748901,115.516251 
	C269.429901,126.779396 278.741028,129.664749 289.383850,131.017319 
	C301.071136,132.502640 312.738342,134.146164 324.415924,135.708481 
	C332.692200,136.815750 341.022034,137.615295 349.236786,139.067764 
	C360.752350,141.103836 372.413208,142.845032 383.580658,146.163605 
	C393.268982,149.042618 396.968719,156.883163 397.225708,167.179489 
	C397.443542,175.907959 394.521851,182.374969 388.417725,188.165848 
	C376.604828,199.372452 365.085602,210.888062 353.316040,222.141083 
	C342.662109,232.327423 331.739197,242.233398 321.132111,252.467392 
	C316.467834,256.967590 314.437775,262.160492 315.771027,269.249023 
	C319.633942,289.787018 322.584290,310.495117 326.045258,331.110870 
	C327.826752,341.722717 330.231323,352.235321 331.827209,362.871857 
	C334.782227,382.566772 320.414001,398.547058 298.924042,391.216675 
	C289.122833,387.873444 280.040649,382.422424 270.317932,377.716888 
M141.737747,243.762787 
	C151.798950,252.454987 163.303543,252.875900 175.024658,248.611450 
	C185.086624,244.950623 189.552917,236.353714 189.809799,226.252396 
	C190.292175,207.285309 190.416092,188.281067 189.786057,169.322281 
	C189.246933,153.099304 179.653107,144.260132 163.778336,143.677597 
	C146.639679,143.048645 136.064697,150.566788 134.989349,167.101608 
	C133.685654,187.147675 134.092834,207.351532 134.799088,227.450592 
	C134.986526,232.784607 138.985565,237.984711 141.737747,243.762787 
M225.283539,250.960876 
	C241.772446,249.444534 250.440018,240.380219 250.834961,223.627487 
	C251.132904,210.988922 251.026840,198.337189 250.893143,185.693512 
	C250.819427,178.723373 250.879501,171.676620 249.887283,164.807709 
	C248.056213,152.131744 239.662552,144.761536 226.955872,143.866364 
	C223.818161,143.645325 220.620193,143.652588 217.495758,143.985275 
	C207.249786,145.076233 200.079391,150.400482 197.062012,160.352325 
	C195.779266,164.583115 195.112061,169.148315 195.047897,173.574326 
	C194.813934,189.710449 194.873322,205.852448 194.971024,221.991333 
	C195.088425,241.387787 204.859467,250.951462 225.283539,250.960876 
M310.179108,162.495316 
	C307.360596,157.915115 305.499268,152.117752 301.532257,148.997971 
	C292.108246,141.586594 280.904266,141.977509 270.235504,146.171722 
	C260.248077,150.098099 256.338165,159.001419 256.094299,168.990601 
	C255.627457,188.114258 255.542770,207.267548 256.054504,226.388321 
	C256.455322,241.364487 266.747681,250.561157 282.054779,250.980576 
	C299.132599,251.448502 309.988342,243.272064 311.017120,227.554321 
	C312.015137,212.306610 311.678894,196.962021 311.640900,181.660706 
	C311.625702,175.536743 310.841156,169.414688 310.179108,162.495316 
M125.161201,144.215973 
	C121.499565,144.213791 117.825188,144.035156 114.182678,144.298019 
	C112.765938,144.400238 110.822884,145.123184 110.143959,146.205795 
	C106.661034,151.759506 101.523605,154.784698 95.565697,156.896072 
	C94.398865,157.309570 92.724579,158.525970 92.666687,159.457947 
	C92.371582,164.208176 92.530464,168.986603 92.530464,174.998688 
	C97.324646,173.222916 101.204781,171.785721 105.752792,170.101151 
	C105.752792,196.753281 105.752792,223.228363 105.752792,249.679489 
	C113.541130,249.679489 120.607002,249.679489 127.581429,249.679489 
	C127.765144,249.052872 127.933754,248.745911 127.934029,248.438782 
	C127.963974,214.819153 127.999626,181.199478 127.919121,147.580078 
	C127.916458,146.467377 126.728264,145.357544 125.161201,144.215973 
M193.503128,113.938728 
	C199.228638,111.773102 202.869171,107.101807 200.057312,101.858925 
	C197.676270,97.419380 192.070068,94.709572 187.664032,91.045441 
	C184.131241,99.353813 189.148529,101.971268 194.269592,104.429230 
	C185.786743,110.852791 185.786743,110.852791 187.363632,117.576073 
	C189.263947,116.440628 191.069290,115.361923 193.503128,113.938728 
M209.356827,111.026955 
	C211.135635,111.026955 212.914444,111.026955 214.883911,111.026955 
	C214.883911,108.948959 214.883911,107.237411 214.883911,105.492188 
	C210.826019,105.492188 207.101700,105.492188 203.178314,105.492188 
	C203.178314,107.434074 203.178314,109.090111 203.178314,111.026939 
	C205.185440,111.026939 206.814087,111.026939 209.356827,111.026955 
M210.422577,96.001465 
	C208.009308,96.001465 205.596039,96.001465 202.799698,96.001465 
	C202.940903,98.153847 203.040848,99.677399 203.132095,101.068161 
	C207.395355,101.068161 211.098587,101.068161 214.826920,101.068161 
	C215.581375,97.724655 215.487656,95.397591 210.422577,96.001465 
z"/>
<path fill="#030000" opacity="1.000000" stroke="none" 
	d="
M141.486115,243.504547 
	C138.985565,237.984711 134.986526,232.784607 134.799088,227.450592 
	C134.092834,207.351532 133.685654,187.147675 134.989349,167.101608 
	C136.064697,150.566788 146.639679,143.048645 163.778336,143.677597 
	C179.653107,144.260132 189.246933,153.099304 189.786057,169.322281 
	C190.416092,188.281067 190.292175,207.285309 189.809799,226.252396 
	C189.552917,236.353714 185.086624,244.950623 175.024658,248.611450 
	C163.303543,252.875900 151.798950,252.454987 141.486115,243.504547 
M167.272461,209.499039 
	C167.229248,196.357666 167.237076,183.215790 167.107895,170.075256 
	C167.074463,166.674881 166.780838,163.029739 162.009232,163.086945 
	C157.578323,163.140076 157.120163,166.658798 157.097000,169.823257 
	C156.963104,188.121414 156.948868,206.421158 157.038528,224.719650 
	C157.054810,228.040604 158.169540,231.390091 162.261536,231.300446 
	C166.375366,231.210327 167.104111,227.782288 167.204819,224.470810 
	C167.346375,219.816895 167.260880,215.156067 167.272461,209.499039 
z"/>
<path fill="#030000" opacity="1.000000" stroke="none" 
	d="
M224.826080,250.971283 
	C204.859467,250.951462 195.088425,241.387787 194.971024,221.991333 
	C194.873322,205.852448 194.813934,189.710449 195.047897,173.574326 
	C195.112061,169.148315 195.779266,164.583115 197.062012,160.352325 
	C200.079391,150.400482 207.249786,145.076233 217.495758,143.985275 
	C220.620193,143.652588 223.818161,143.645325 226.955872,143.866364 
	C239.662552,144.761536 248.056213,152.131744 249.887283,164.807709 
	C250.879501,171.676620 250.819427,178.723373 250.893143,185.693512 
	C251.026840,198.337189 251.132904,210.988922 250.834961,223.627487 
	C250.440018,240.380219 241.772446,249.444534 224.826080,250.971283 
M228.057907,208.499298 
	C228.024429,195.523453 228.070297,182.546555 227.901398,169.572479 
	C227.859390,166.345703 227.195648,162.990570 222.760834,163.073441 
	C218.669983,163.149872 217.969421,166.175934 217.951843,169.329056 
	C217.848892,187.793610 217.793823,206.258850 217.847977,224.723480 
	C217.857773,228.062225 218.899384,231.414078 223.030243,231.297806 
	C227.105164,231.183105 227.906219,227.787537 228.000610,224.470261 
	C228.142532,219.483261 228.050491,214.489578 228.057907,208.499298 
z"/>
<path fill="#020000" opacity="1.000000" stroke="none" 
	d="
M310.292969,162.893539 
	C310.841156,169.414688 311.625702,175.536743 311.640900,181.660706 
	C311.678894,196.962021 312.015137,212.306610 311.017120,227.554321 
	C309.988342,243.272064 299.132599,251.448502 282.054779,250.980576 
	C266.747681,250.561157 256.455322,241.364487 256.054504,226.388321 
	C255.542770,207.267548 255.627457,188.114258 256.094299,168.990601 
	C256.338165,159.001419 260.248077,150.098099 270.235504,146.171722 
	C280.904266,141.977509 292.108246,141.586594 301.532257,148.997971 
	C305.499268,152.117752 307.360596,157.915115 310.292969,162.893539 
M280.850128,230.448318 
	C286.288818,232.305191 288.878021,230.115616 288.909790,223.228806 
	C288.988098,206.260925 288.955505,189.292282 288.889862,172.324265 
	C288.882263,170.353256 288.905914,168.073059 287.967407,166.502518 
	C287.048584,164.964996 284.954041,163.343033 283.308929,163.270584 
	C281.943909,163.210464 279.794922,165.085785 279.223785,166.575470 
	C278.363678,168.818787 278.375977,171.472809 278.366272,173.953598 
	C278.303192,190.089874 278.249573,206.227448 278.423004,222.362106 
	C278.450165,224.888962 279.649628,227.403214 280.850128,230.448318 
z"/>
<path fill="#020000" opacity="1.000000" stroke="none" 
	d="
M125.626953,144.231171 
	C126.728264,145.357544 127.916458,146.467377 127.919121,147.580078 
	C127.999626,181.199478 127.963974,214.819153 127.934029,248.438782 
	C127.933754,248.745911 127.765144,249.052872 127.581429,249.679489 
	C120.607002,249.679489 113.541130,249.679489 105.752792,249.679489 
	C105.752792,223.228363 105.752792,196.753281 105.752792,170.101151 
	C101.204781,171.785721 97.324646,173.222916 92.530464,174.998688 
	C92.530464,168.986603 92.371582,164.208176 92.666687,159.457947 
	C92.724579,158.525970 94.398865,157.309570 95.565697,156.896072 
	C101.523605,154.784698 106.661034,151.759506 110.143959,146.205795 
	C110.822884,145.123184 112.765938,144.400238 114.182678,144.298019 
	C117.825188,144.035156 121.499565,144.213791 125.626953,144.231171 
z"/>
<path fill="#080000" opacity="1.000000" stroke="none" 
	d="
M193.188873,114.110977 
	C191.069290,115.361923 189.263947,116.440628 187.363632,117.576073 
	C185.786743,110.852791 185.786743,110.852791 194.269592,104.429230 
	C189.148529,101.971268 184.131241,99.353813 187.664032,91.045441 
	C192.070068,94.709572 197.676270,97.419380 200.057312,101.858925 
	C202.869171,107.101807 199.228638,111.773102 193.188873,114.110977 
z"/>
<path fill="#0E0000" opacity="1.000000" stroke="none" 
	d="
M208.899780,111.026947 
	C206.814087,111.026939 205.185440,111.026939 203.178314,111.026939 
	C203.178314,109.090111 203.178314,107.434074 203.178314,105.492188 
	C207.101700,105.492188 210.826019,105.492188 214.883911,105.492188 
	C214.883911,107.237411 214.883911,108.948959 214.883911,111.026955 
	C212.914444,111.026955 211.135635,111.026955 208.899780,111.026947 
z"/>
<path fill="#000000" opacity="1.000000" stroke="none" 
	d="
M210.896179,96.001740 
	C215.487656,95.397591 215.581375,97.724655 214.826920,101.068161 
	C211.098587,101.068161 207.395355,101.068161 203.132095,101.068161 
	C203.040848,99.677399 202.940903,98.153847 202.799698,96.001465 
	C205.596039,96.001465 208.009308,96.001465 210.896179,96.001740 
z"/>
<path fill="#FB0000" opacity="1.000000" stroke="none" 
	d="
M167.272461,209.998627 
	C167.260880,215.156067 167.346375,219.816895 167.204819,224.470810 
	C167.104111,227.782288 166.375366,231.210327 162.261536,231.300446 
	C158.169540,231.390091 157.054810,228.040604 157.038528,224.719650 
	C156.948868,206.421158 156.963104,188.121414 157.097000,169.823257 
	C157.120163,166.658798 157.578323,163.140076 162.009232,163.086945 
	C166.780838,163.029739 167.074463,166.674881 167.107895,170.075256 
	C167.237076,183.215790 167.229248,196.357666 167.272461,209.998627 
z"/>
<path fill="#FB0000" opacity="1.000000" stroke="none" 
	d="
M228.057907,208.999023 
	C228.050491,214.489578 228.142532,219.483261 228.000610,224.470261 
	C227.906219,227.787537 227.105164,231.183105 223.030243,231.297806 
	C218.899384,231.414078 217.857773,228.062225 217.847977,224.723480 
	C217.793823,206.258850 217.848892,187.793610 217.951843,169.329056 
	C217.969421,166.175934 218.669983,163.149872 222.760834,163.073441 
	C227.195648,162.990570 227.859390,166.345703 227.901398,169.572479 
	C228.070297,182.546555 228.024429,195.523453 228.057907,208.999023 
z"/>
<path fill="#F00000" opacity="1.000000" stroke="none" 
	d="
M280.578552,230.185806 
	C279.649628,227.403214 278.450165,224.888962 278.423004,222.362106 
	C278.249573,206.227448 278.303192,190.089874 278.366272,173.953598 
	C278.375977,171.472809 278.363678,168.818787 279.223785,166.575470 
	C279.794922,165.085785 281.943909,163.210464 283.308929,163.270584 
	C284.954041,163.343033 287.048584,164.964996 287.967407,166.502518 
	C288.905914,168.073059 288.882263,170.353256 288.889862,172.324265 
	C288.955505,189.292282 288.988098,206.260925 288.909790,223.228806 
	C288.878021,230.115616 286.288818,232.305191 280.578552,230.185806 
z"/>
</svg>