<svg version="1.1" id="Layer_1" xmlns="http://www.w3.org/2000/svg" xmlns:xlink="http://www.w3.org/1999/xlink" x="0px" y="0px"
	 width="100%" viewBox="0 0 400 400" enable-background="new 0 0 400 400" xml:space="preserve">
<path fill="#000000" opacity="1.000000" stroke="none" 
	d="
M271.000000,401.000000 
	C180.694733,401.000000 90.889473,401.000000 1.042102,401.000000 
	C1.042102,267.736420 1.042102,134.472794 1.042102,1.104592 
	C134.221878,1.104592 267.443848,1.104592 400.832916,1.104592 
	C400.832916,134.333160 400.832916,267.666565 400.832916,401.000000 
	C357.806183,401.000000 314.653107,401.000000 271.000000,401.000000 
M147.259552,370.943817 
	C148.488541,370.142029 149.665359,369.242645 150.954468,368.553284 
	C166.289185,360.352631 181.588165,352.081421 197.043900,344.114624 
	C199.380905,342.910034 203.076401,341.932465 205.109543,342.938812 
	C218.067627,349.352722 230.746414,356.332520 243.495361,363.166656 
	C250.225098,366.774139 256.820496,370.642975 263.636505,374.076294 
	C275.213654,379.907928 286.574005,386.392700 298.643677,390.974426 
	C319.665924,398.954651 334.838257,382.984314 331.868866,362.945251 
	C329.940063,349.928131 327.230499,337.028656 325.030334,324.049377 
	C321.928986,305.753510 319.347504,287.359436 315.767975,269.159912 
	C314.413635,262.273895 316.333801,257.173889 320.795990,252.829880 
	C331.464539,242.443893 342.523132,232.459915 353.287354,222.170441 
	C364.930542,211.040787 376.299316,199.622284 388.021240,188.577530 
	C394.396149,182.570938 397.524658,175.901840 397.227753,166.815491 
	C396.905945,156.966385 393.328094,149.234787 384.288696,146.385300 
	C373.080170,142.852036 361.280060,141.043701 349.634644,139.092194 
	C338.686493,137.257523 327.600891,136.253204 316.587463,134.795120 
	C307.534668,133.596619 298.519287,132.093613 289.450592,131.042389 
	C278.354919,129.756226 269.103424,126.259773 264.293274,114.884987 
	C259.489990,103.526558 254.109207,92.398460 248.635040,81.340942 
	C240.548752,65.007050 232.371140,48.709274 223.746109,32.657413 
	C221.520157,28.514709 218.112396,24.280815 214.154053,21.929972 
	C201.787735,14.585652 186.969223,19.956633 180.110321,33.597225 
	C170.707382,52.297173 161.390427,71.040337 152.034866,89.764107 
	C147.740280,98.359047 143.029770,106.776482 139.270844,115.599464 
	C136.083115,123.081749 130.903854,127.879822 123.311989,129.736786 
	C116.847008,131.318130 110.166222,132.075272 103.549835,132.966354 
	C92.699455,134.427658 81.808685,135.591415 70.962799,137.083145 
	C57.398811,138.948700 43.786530,140.619339 30.351057,143.189423 
	C24.638929,144.282104 18.543791,146.421539 13.995684,149.887100 
	C5.679431,156.223907 4.105536,171.982910 10.048883,180.812775 
	C12.084618,183.837204 14.867024,186.398407 17.501560,188.973511 
	C28.067148,199.300797 38.718452,209.540329 49.319389,219.831543 
	C61.713009,231.863052 74.085411,243.916397 86.470940,255.956238 
	C89.681061,259.076752 90.431877,262.663391 89.516022,267.095459 
	C87.147591,278.557190 85.090729,290.084747 83.013741,301.604828 
	C80.473289,315.695618 77.941879,329.789368 75.595688,343.913269 
	C74.207718,352.268768 72.170372,360.689362 72.206909,369.072906 
	C72.285812,387.176697 87.708122,397.611542 103.699074,391.657959 
	C118.480408,386.154694 132.271973,377.992981 147.259552,370.943817 
z"/>
<path fill="#FCA700" opacity="1.000000" stroke="none" 
	d="
M146.879486,370.972961 
	C132.271973,377.992981 118.480408,386.154694 103.699074,391.657959 
	C87.708122,397.611542 72.285812,387.176697 72.206909,369.072906 
	C72.170372,360.689362 74.207718,352.268768 75.595688,343.913269 
	C77.941879,329.789368 80.473289,315.695618 83.013741,301.604828 
	C85.090729,290.084747 87.147591,278.557190 89.516022,267.095459 
	C90.431877,262.663391 89.681061,259.076752 86.470940,255.956238 
	C74.085411,243.916397 61.713009,231.863052 49.319389,219.831543 
	C38.718452,209.540329 28.067148,199.300797 17.501560,188.973511 
	C14.867024,186.398407 12.084618,183.837204 10.048883,180.812775 
	C4.105536,171.982910 5.679431,156.223907 13.995684,149.887100 
	C18.543791,146.421539 24.638929,144.282104 30.351057,143.189423 
	C43.786530,140.619339 57.398811,138.948700 70.962799,137.083145 
	C81.808685,135.591415 92.699455,134.427658 103.549835,132.966354 
	C110.166222,132.075272 116.847008,131.318130 123.311989,129.736786 
	C130.903854,127.879822 136.083115,123.081749 139.270844,115.599464 
	C143.029770,106.776482 147.740280,98.359047 152.034866,89.764107 
	C161.390427,71.040337 170.707382,52.297173 180.110321,33.597225 
	C186.969223,19.956633 201.787735,14.585652 214.154053,21.929972 
	C218.112396,24.280815 221.520157,28.514709 223.746109,32.657413 
	C232.371140,48.709274 240.548752,65.007050 248.635040,81.340942 
	C254.109207,92.398460 259.489990,103.526558 264.293274,114.884987 
	C269.103424,126.259773 278.354919,129.756226 289.450592,131.042389 
	C298.519287,132.093613 307.534668,133.596619 316.587463,134.795120 
	C327.600891,136.253204 338.686493,137.257523 349.634644,139.092194 
	C361.280060,141.043701 373.080170,142.852036 384.288696,146.385300 
	C393.328094,149.234787 396.905945,156.966385 397.227753,166.815491 
	C397.524658,175.901840 394.396149,182.570938 388.021240,188.577530 
	C376.299316,199.622284 364.930542,211.040787 353.287354,222.170441 
	C342.523132,232.459915 331.464539,242.443893 320.795990,252.829880 
	C316.333801,257.173889 314.413635,262.273895 315.767975,269.159912 
	C319.347504,287.359436 321.928986,305.753510 325.030334,324.049377 
	C327.230499,337.028656 329.940063,349.928131 331.868866,362.945251 
	C334.838257,382.984314 319.665924,398.954651 298.643677,390.974426 
	C286.574005,386.392700 275.213654,379.907928 263.636505,374.076294 
	C256.820496,370.642975 250.225098,366.774139 243.495361,363.166656 
	C230.746414,356.332520 218.067627,349.352722 205.109543,342.938812 
	C203.076401,341.932465 199.380905,342.910034 197.043900,344.114624 
	C181.588165,352.081421 166.289185,360.352631 150.954468,368.553284 
	C149.665359,369.242645 148.488541,370.142029 146.879486,370.972961 
M301.349274,161.149673 
	C288.716125,150.940948 274.541016,150.623383 260.396271,156.324631 
	C247.325363,161.593018 243.252502,173.520203 243.018234,186.475464 
	C242.611755,208.952744 242.583191,231.450134 243.048035,253.925613 
	C243.404907,271.180084 253.613403,282.385101 270.689514,284.550781 
	C293.772736,287.478333 311.017792,276.621307 311.228241,251.254028 
	C311.411957,229.105774 311.326355,206.951263 311.000549,184.804794 
	C310.872711,176.115768 308.005524,168.143967 301.349274,161.149673 
M211.486359,284.133392 
	C225.362747,281.320068 235.226868,272.672943 235.760803,258.793365 
	C236.776138,232.401520 236.845825,205.901184 235.628082,179.523468 
	C234.931625,164.437790 224.579407,155.454407 209.220367,153.498276 
	C188.325821,150.837128 170.307144,158.422531 168.913467,183.608078 
	C167.609680,207.169296 167.737320,230.881729 168.676025,254.470291 
	C169.326370,270.813263 177.822006,280.758148 191.349030,283.549194 
	C197.564133,284.831573 204.193542,284.105988 211.486359,284.133392 
M162.223953,227.332870 
	C161.788605,223.198029 161.592758,219.021072 160.874557,214.935944 
	C158.373688,200.711090 151.084793,192.977509 138.941788,191.212158 
	C132.608459,190.291428 126.886917,191.663910 121.691551,196.167923 
	C121.691551,189.839020 121.691551,184.293640 121.691551,178.197693 
	C134.113785,178.197693 146.180923,178.197693 158.420013,178.197693 
	C158.420013,169.893875 158.420013,162.154236 158.420013,154.357590 
	C137.760162,154.357590 117.387665,154.357590 97.164619,154.357590 
	C97.164619,177.464493 97.164619,200.211395 97.164619,222.994095 
	C105.069664,222.994095 112.649261,222.994095 120.238319,222.994095 
	C120.463341,222.257172 120.683174,221.806015 120.731522,221.337158 
	C121.190445,216.887085 122.318977,212.903336 127.866920,212.896957 
	C133.476059,212.890518 134.111435,217.244553 134.255814,221.268677 
	C134.613831,231.245789 134.660995,241.235916 134.695908,251.221283 
	C134.703384,253.357819 134.733215,255.889801 133.663589,257.528809 
	C132.476822,259.347290 130.130692,261.242981 128.124283,261.442139 
	C126.358688,261.617432 123.552666,259.935272 122.666946,258.287964 
	C121.403595,255.938293 121.192467,252.886932 121.039543,250.107346 
	C120.797203,245.702423 120.974937,241.274399 120.974937,236.853119 
	C111.568832,236.853119 102.977875,236.853119 93.937630,236.853119 
	C93.937630,242.742630 93.924240,248.369995 93.940063,253.997299 
	C93.993942,273.155487 102.278778,283.286865 121.335541,285.525177 
	C144.300583,288.222534 158.455917,280.266571 161.100601,256.149292 
	C162.112808,246.918671 161.917633,237.555679 162.223953,227.332870 
M194.115677,113.572990 
	C200.076935,111.550117 202.620438,106.305130 200.048035,101.682167 
	C197.597519,97.278282 191.961517,94.646935 187.625885,91.155708 
	C184.022903,99.484131 189.244308,101.950241 194.316742,104.420486 
	C185.637833,110.980705 185.461121,111.327347 187.511307,117.516220 
	C189.526810,116.315331 191.511124,115.133018 194.115677,113.572990 
M215.024933,110.459648 
	C215.024933,108.870102 215.024933,107.280563 215.024933,105.615585 
	C210.772690,105.615585 206.933746,105.615585 203.085785,105.615585 
	C203.085785,107.579002 203.085785,109.141174 203.085785,110.943871 
	C206.990540,110.943871 210.605728,110.943871 215.024933,110.459648 
M211.448715,101.436996 
	C216.153427,101.863564 215.444504,99.136772 214.792206,96.258194 
	C210.710464,96.258194 206.957535,96.258194 202.844116,96.258194 
	C202.928116,98.076889 202.999405,99.620682 203.083359,101.438438 
	C205.856323,101.438438 208.163696,101.438438 211.448715,101.436996 
z"/>
<path fill="#030200" opacity="1.000000" stroke="none" 
	d="
M301.601562,161.401428 
	C308.005524,168.143967 310.872711,176.115768 311.000549,184.804794 
	C311.326355,206.951263 311.411957,229.105774 311.228241,251.254028 
	C311.017792,276.621307 293.772736,287.478333 270.689514,284.550781 
	C253.613403,282.385101 243.404907,271.180084 243.048035,253.925613 
	C242.583191,231.450134 242.611755,208.952744 243.018234,186.475464 
	C243.252502,173.520203 247.325363,161.593018 260.396271,156.324631 
	C274.541016,150.623383 288.716125,150.940948 301.601562,161.401428 
M283.427246,222.500275 
	C283.426361,211.691681 283.467041,200.882828 283.396362,190.074692 
	C283.377960,187.257828 283.662842,184.160980 282.601837,181.716385 
	C281.744110,179.740158 279.101868,177.387329 277.197998,177.339874 
	C275.292084,177.292404 272.688568,179.525925 271.560028,181.446609 
	C270.495300,183.258698 270.773193,185.964478 270.767731,188.277847 
	C270.718384,209.229752 270.706573,230.181885 270.753387,251.133789 
	C270.767242,257.327179 273.090149,260.867615 276.913208,260.980774 
	C280.807220,261.096008 283.184753,257.609253 283.412964,251.436188 
	C283.437531,250.771851 283.425201,250.106033 283.425293,249.440903 
	C283.426453,240.794037 283.426758,232.147156 283.427246,222.500275 
z"/>
<path fill="#020100" opacity="1.000000" stroke="none" 
	d="
M211.060715,284.212158 
	C204.193542,284.105988 197.564133,284.831573 191.349030,283.549194 
	C177.822006,280.758148 169.326370,270.813263 168.676025,254.470291 
	C167.737320,230.881729 167.609680,207.169296 168.913467,183.608078 
	C170.307144,158.422531 188.325821,150.837128 209.220367,153.498276 
	C224.579407,155.454407 234.931625,164.437790 235.628082,179.523468 
	C236.845825,205.901184 236.776138,232.401520 235.760803,258.793365 
	C235.226868,272.672943 225.362747,281.320068 211.060715,284.212158 
M197.530319,257.688873 
	C199.587021,258.759918 201.890213,260.970398 203.633652,260.593262 
	C205.514908,260.186340 207.179581,257.537018 208.348969,255.523422 
	C209.108292,254.215973 208.963409,252.295898 208.966171,250.649857 
	C209.000839,229.992523 209.012085,209.335068 208.955185,188.677826 
	C208.948822,186.368652 208.552612,184.051300 208.221283,181.754456 
	C207.735001,178.383423 205.656479,176.912064 202.316086,176.998764 
	C199.174911,177.080276 197.324478,178.638306 196.888687,181.731857 
	C196.541580,184.195694 196.122253,186.679886 196.114655,189.156204 
	C196.052292,209.480225 196.045364,229.804642 196.124939,250.128525 
	C196.133896,252.413712 196.784805,254.696411 197.530319,257.688873 
z"/>
<path fill="#020100" opacity="1.000000" stroke="none" 
	d="
M162.248322,227.792938 
	C161.917633,237.555679 162.112808,246.918671 161.100601,256.149292 
	C158.455917,280.266571 144.300583,288.222534 121.335541,285.525177 
	C102.278778,283.286865 93.993942,273.155487 93.940063,253.997299 
	C93.924240,248.369995 93.937630,242.742630 93.937630,236.853119 
	C102.977875,236.853119 111.568832,236.853119 120.974937,236.853119 
	C120.974937,241.274399 120.797203,245.702423 121.039543,250.107346 
	C121.192467,252.886932 121.403595,255.938293 122.666946,258.287964 
	C123.552666,259.935272 126.358688,261.617432 128.124283,261.442139 
	C130.130692,261.242981 132.476822,259.347290 133.663589,257.528809 
	C134.733215,255.889801 134.703384,253.357819 134.695908,251.221283 
	C134.660995,241.235916 134.613831,231.245789 134.255814,221.268677 
	C134.111435,217.244553 133.476059,212.890518 127.866920,212.896957 
	C122.318977,212.903336 121.190445,216.887085 120.731522,221.337158 
	C120.683174,221.806015 120.463341,222.257172 120.238319,222.994095 
	C112.649261,222.994095 105.069664,222.994095 97.164619,222.994095 
	C97.164619,200.211395 97.164619,177.464493 97.164619,154.357590 
	C117.387665,154.357590 137.760162,154.357590 158.420013,154.357590 
	C158.420013,162.154236 158.420013,169.893875 158.420013,178.197693 
	C146.180923,178.197693 134.113785,178.197693 121.691551,178.197693 
	C121.691551,184.293640 121.691551,189.839020 121.691551,196.167923 
	C126.886917,191.663910 132.608459,190.291428 138.941788,191.212158 
	C151.084793,192.977509 158.373688,200.711090 160.874557,214.935944 
	C161.592758,219.021072 161.788605,223.198029 162.248322,227.792938 
z"/>
<path fill="#080500" opacity="1.000000" stroke="none" 
	d="
M193.805573,113.761848 
	C191.511124,115.133018 189.526810,116.315331 187.511307,117.516220 
	C185.461121,111.327347 185.637833,110.980705 194.316742,104.420486 
	C189.244308,101.950241 184.022903,99.484131 187.625885,91.155708 
	C191.961517,94.646935 197.597519,97.278282 200.048035,101.682167 
	C202.620438,106.305130 200.076935,111.550117 193.805573,113.761848 
z"/>
<path fill="#0E0A00" opacity="1.000000" stroke="none" 
	d="
M214.622925,110.701759 
	C210.605728,110.943871 206.990540,110.943871 203.085785,110.943871 
	C203.085785,109.141174 203.085785,107.579002 203.085785,105.615585 
	C206.933746,105.615585 210.772690,105.615585 215.024933,105.615585 
	C215.024933,107.280563 215.024933,108.870102 214.622925,110.701759 
z"/>
<path fill="#000000" opacity="1.000000" stroke="none" 
	d="
M210.959900,101.437714 
	C208.163696,101.438438 205.856323,101.438438 203.083359,101.438438 
	C202.999405,99.620682 202.928116,98.076889 202.844116,96.258194 
	C206.957535,96.258194 210.710464,96.258194 214.792206,96.258194 
	C215.444504,99.136772 216.153427,101.863564 210.959900,101.437714 
z"/>
<path fill="#FCA700" opacity="1.000000" stroke="none" 
	d="
M283.427246,223.000275 
	C283.426758,232.147156 283.426453,240.794037 283.425293,249.440903 
	C283.425201,250.106033 283.437531,250.771851 283.412964,251.436188 
	C283.184753,257.609253 280.807220,261.096008 276.913208,260.980774 
	C273.090149,260.867615 270.767242,257.327179 270.753387,251.133789 
	C270.706573,230.181885 270.718384,209.229752 270.767731,188.277847 
	C270.773193,185.964478 270.495300,183.258698 271.560028,181.446609 
	C272.688568,179.525925 275.292084,177.292404 277.197998,177.339874 
	C279.101868,177.387329 281.744110,179.740158 282.601837,181.716385 
	C283.662842,184.160980 283.377960,187.257828 283.396362,190.074692 
	C283.467041,200.882828 283.426361,211.691681 283.427246,223.000275 
z"/>
<path fill="#F9A500" opacity="1.000000" stroke="none" 
	d="
M197.334167,257.334564 
	C196.784805,254.696411 196.133896,252.413712 196.124939,250.128525 
	C196.045364,229.804642 196.052292,209.480225 196.114655,189.156204 
	C196.122253,186.679886 196.541580,184.195694 196.888687,181.731857 
	C197.324478,178.638306 199.174911,177.080276 202.316086,176.998764 
	C205.656479,176.912064 207.735001,178.383423 208.221283,181.754456 
	C208.552612,184.051300 208.948822,186.368652 208.955185,188.677826 
	C209.012085,209.335068 209.000839,229.992523 208.966171,250.649857 
	C208.963409,252.295898 209.108292,254.215973 208.348969,255.523422 
	C207.179581,257.537018 205.514908,260.186340 203.633652,260.593262 
	C201.890213,260.970398 199.587021,258.759918 197.334167,257.334564 
z"/>
</svg>